<svg id="Capa_1" data-name="Capa 1" xmlns="http://www.w3.org/2000/svg" viewBox="0 0 1008.43 827"><defs><style>.cls-1{opacity:0.12;}.cls-2{fill:#9baa87;}</style></defs><g class="cls-1"><path class="cls-2" d="M848.74,308.16a36.43,36.43,0,1,0-34.43-38.34,36.43,36.43,0,0,0,34.43,38.34"/><path class="cls-2" d="M790.16,88.06A46.27,46.27,0,1,0,792,22.64a46.26,46.26,0,0,0-1.84,65.42"/><path class="cls-2" d="M656.2,229.14A60.94,60.94,0,1,0,610.58,156a61,61,0,0,0,45.62,73.11"/><path class="cls-2" d="M669.86,178.14a535.39,535.39,0,0,1,83-2.09c6.84.17,13.65.8,20.45,1.19,6.79.64,13.56,1.3,20.3,2.11,13.45,1.82,26.86,3.53,40.06,6.27,26.37,5.55,52.38,12.13,77.3,21.81A405.19,405.19,0,0,1,983,242l8.69,5c2.89,1.66,5.61,3.63,8.42,5.43,5.55,3.76,11.29,7.21,16.68,11.2l16.1,12.13c5.39,4,10.27,8.73,15.59,12.88l7.82,6.43c2.56,2.21,5,4.6,7.47,6.9l14.86,13.95c4.69,5,9.31,10,14.08,14.89,2.38,2.46,4.83,4.85,7.16,7.37l6.74,7.81c36.2,41.53,67.52,88.47,96.78,138.09l1.89-.95c-22.51-53.23-50.94-103.67-86.07-148.46l-6.53-8.45c-2.26-2.73-4.65-5.35-7-8l-14-16-14.94-15.05c-2.51-2.48-4.94-5.06-7.53-7.46l-7.92-7a413,413,0,0,0-67.75-49.86c-48.17-28.61-102-46.49-157.15-54.23a457.32,457.32,0,0,0-83.56-4.06c-28,1.22-56,4.5-83.44,11.57Z"/><path class="cls-2" d="M860.58,271.65c20,4.68,40.39,6.24,60.78,7.58,10.19.46,20.4.63,30.63.7s20.46-.47,30.7-.95c20.51-.76,40.94-3.52,61.42-6.26,20.42-3.28,40.75-7.72,61-12.81,20.14-5.7,40.22-12.09,59.86-20.24q7.37-3,14.6-6.48c4.83-2.31,9.71-4.37,14.46-6.93s9.57-4.83,14.25-7.49l13.85-8.44a279.76,279.76,0,0,0,51-41c15.15-16,28.6-34,37.25-54.23l-1.69-1.2c-23.59,35.45-57.68,61.5-93.67,81.2A443.7,443.7,0,0,1,1159,220.34a577.86,577.86,0,0,1-58.28,18.38c-39.25,10.7-79.2,18.06-119.32,23.12-40.09,4.9-80.49,8.13-120.64,7.63Z"/><path class="cls-2" d="M827.7,54.11c10.59,19.89,23.38,38,36.49,55.94,6.69,8.81,13.64,17.41,20.64,26s14.5,16.63,21.94,24.79c14.79,16.44,31,31.33,47.26,46.21,16.55,14.54,34.05,27.94,51.93,40.83,36.31,24.82,75.41,46.44,118,59.12,21.15,6.5,43,11,65.19,12.27,22.18,1,44.52-.34,65.91-6.2l-.11-2.18c-42.79,3.35-85.47-4.76-125.09-20.11-10-3.63-19.68-8.11-29.41-12.43-9.53-4.76-19.15-9.36-28.41-14.69a571.78,571.78,0,0,1-54.27-34.17c-35.27-24.33-68.39-52-99.82-81.66s-61.25-61.28-88.6-95.12Z"/></g></svg>