<?xml version="1.0" encoding="utf-8"?>
<!-- Generator: Adobe Illustrator 25.4.1, SVG Export Plug-In . SVG Version: 6.00 Build 0)  -->
<svg version="1.1" id="Capa_1" xmlns="http://www.w3.org/2000/svg" xmlns:xlink="http://www.w3.org/1999/xlink" x="0px" y="0px"
	 viewBox="0 0 552 424.9" style="enable-background:new 0 0 552 424.9;" xml:space="preserve">
<style type="text/css">
	.st0{opacity:0.12;clip-path:url(#SVGID_00000010306738644221734610000013091559784376636583_);}
	.st1{fill:#9BAA87;}
</style>
<g>
	<defs>
		<rect id="SVGID_1_" x="-6" y="-7.1" width="564" height="440"/>
	</defs>
	<clipPath id="SVGID_00000057858659552884226900000014206096907181430708_">
		<use xlink:href="#SVGID_1_"  style="overflow:visible;"/>
	</clipPath>
	<g style="opacity:0.12;clip-path:url(#SVGID_00000057858659552884226900000014206096907181430708_);">
		<path class="st1" d="M99.5,152.2c-9.7-1.9-15.9-11.3-14-20.9s11.3-15.9,20.9-14c9.7,1.9,15.9,11.3,14,20.9c0,0,0,0,0,0
			C118.5,147.8,109.2,154.1,99.5,152.2"/>
		<path class="st1" d="M153.7,54.9c-10.6,6.7-24.5,3.6-31.2-7s-3.6-24.5,7-31.2c10.6-6.7,24.5-3.6,31.2,7
			C167.4,34.2,164.3,48.1,153.7,54.9C153.7,54.9,153.7,54.9,153.7,54.9"/>
		<path class="st1" d="M200.3,137.8c-16.5-0.3-29.5-14-29.2-30.4s14-29.5,30.4-29.2c16.5,0.3,29.5,14,29.2,30.4
			C230.4,125.1,216.8,138.2,200.3,137.8"/>
		<path class="st1" d="M199.9,112c-12.7-4.7-25.8-8.3-39.1-10.9c-3.3-0.7-6.6-1.3-9.8-1.9c-3.3-0.5-6.6-1-9.9-1.4
			c-6.6-0.8-13.2-1.5-19.8-1.8c-13.2-0.5-26.3-0.5-39.3,1.1c-13,1.3-25.8,3.9-38.3,7.7l-4.7,1.3c-1.6,0.4-3.1,1-4.7,1.6
			c-3.1,1.1-6.2,2.1-9.3,3.3l-9.1,3.8c-3,1.3-5.9,2.9-8.9,4.2L2.7,121c-1.5,0.7-2.9,1.6-4.4,2.4l-8.7,4.8c-2.8,1.8-5.6,3.6-8.5,5.4
			c-1.4,0.9-2.9,1.7-4.3,2.6l-4.1,2.9C-49.5,154.5-69.9,173-89.8,193l-0.8-0.7c17.1-22.5,36.6-43,58.6-60.1l4.1-3.2
			c1.4-1,2.8-2,4.3-3l8.6-5.9l8.9-5.3c1.5-0.9,3-1.8,4.5-2.6l4.6-2.4c12.2-6.5,25-11.6,38.1-15.5c26.3-7.8,53.9-9.8,81-6.9
			c13.6,1.5,27,4.2,40.1,8.1c13.1,3.9,26,8.8,38.2,15.5L199.9,112z"/>
		<path class="st1" d="M98.3,133.5c-10.1-0.2-19.9-1.9-29.7-3.7c-4.9-1-9.8-2.2-14.6-3.3c-4.9-1.2-9.6-2.7-14.4-4.1
			c-9.6-2.8-19-6.6-28.4-10.3c-9.3-4-18.4-8.5-27.4-13.4c-8.9-5.1-17.6-10.6-26-16.8c-2.1-1.5-4.1-3.2-6.1-4.8c-2-1.7-4.1-3.2-6-5
			c-1.9-1.8-4-3.4-5.9-5.2l-5.6-5.7c-7.4-7.7-13.9-16.3-19.3-25.6c-5.3-9.4-9.5-19.6-11.2-30.2l0.9-0.4c7,19.6,20,36.1,34.7,49.7
			c7.4,6.9,15.4,13,23.6,18.7C-28.9,79-20.4,84.3-11.6,89c17.3,9.8,35.4,18.1,53.8,25.3c18.4,7.1,37.2,13.5,56.3,18.1L98.3,133.5z"
			/>
		<path class="st1" d="M140,34.3c-7.4,8.2-15.6,15.2-24,22.1c-4.2,3.4-8.6,6.6-12.9,9.8s-8.9,6.1-13.4,9.1c-9,6-18.5,11.1-28,16.2
			c-9.6,4.9-19.5,9.2-29.5,13.1c-20.2,7.4-41.3,13-63,13.9c-10.8,0.5-21.7,0.1-32.4-2c-10.6-2.2-21.1-5.5-30.5-10.9l0.3-1
			c19.9,6.7,41.1,8,61.7,5.5c5.2-0.5,10.3-1.5,15.4-2.4c5.1-1.1,10.2-2.1,15.2-3.6c10.1-2.7,20.1-5.9,29.8-9.7
			c19.6-7.3,38.7-16.5,57.1-26.7c18.4-10.3,36.4-21.7,53.4-34.5L140,34.3z"/>
	</g>
</g>
</svg>
