<?xml version="1.0" encoding="utf-8"?>
<!-- Generator: Adobe Illustrator 25.3.1, SVG Export Plug-In . SVG Version: 6.00 Build 0)  -->
<svg version="1.1" id="Capa_1" xmlns="http://www.w3.org/2000/svg" xmlns:xlink="http://www.w3.org/1999/xlink" x="0px" y="0px"
	 viewBox="0 0 1920 404" style="enable-background:new 0 0 1920 404;" xml:space="preserve">
<style type="text/css">
	.st0{clip-path:url(#SVGID_2_);}
	.st1{opacity:0.25;fill:#EADFC1;enable-background:new    ;}
</style>
<g>
	<defs>
		<rect id="SVGID_1_" y="-697" width="1920" height="697"/>
	</defs>
	<clipPath id="SVGID_2_">
		<use xlink:href="#SVGID_1_"  style="overflow:visible;"/>
	</clipPath>
	<g class="st0">
	</g>
</g>
<path class="st1" d="M104.5,118.5c-2.7,11.3-14,18.3-25.3,15.6c-11.3-2.7-18.3-14-15.6-25.3c2.7-11.2,13.8-18.2,25-15.6
	c11.3,2.5,18.4,13.8,15.9,25.1C104.5,118.3,104.5,118.4,104.5,118.5"/>
<path class="st1" d="M145.6,53.8c3.1-13.7,16.8-22.3,30.5-19.2s22.3,16.8,19.2,30.5c-3.1,13.7-16.7,22.3-30.5,19.2
	C151,81.2,142.5,67.5,145.6,53.8C145.6,53.8,145.6,53.8,145.6,53.8"/>
<path class="st1" d="M1754.6,301.8c3.1-13.7,16.8-22.3,30.5-19.2c13.7,3.1,22.3,16.8,19.2,30.5c-3.1,13.7-16.7,22.3-30.5,19.2
	C1760,329.2,1751.5,315.5,1754.6,301.8C1754.6,301.8,1754.6,301.8,1754.6,301.8"/>
<path class="st1" d="M930,288.9c40.2,16,81.5,28.9,123.7,38.5c10.3,2.7,20.8,4.6,31.2,7c10.5,1.9,20.9,3.8,31.4,5.5
	c21,3,41.8,6.2,62.8,7.7c42,2.9,83.8,4.2,125.3,0.3c41.6-3,82.7-10,122.9-21.1l15.2-3.8c5-1.3,10-3.1,15-4.6c9.9-3.3,20-6,29.8-9.7
	l29.3-11.3c9.8-3.7,19.2-8.7,28.9-12.7l14.5-6.3c4.8-2.2,9.4-4.8,14.2-7.2l28.3-14.6c9.2-5.4,18.2-11,27.5-16.4
	c4.6-2.7,9.3-5.2,13.9-8l13.4-8.9c72.1-46.9,139.1-104,204.2-166l2.4,2.2c-56.5,70.3-120.7,133.8-192.6,186.1l-13.4,9.9
	c-4.6,3.1-9.3,6-13.9,9.1l-27.9,18l-28.8,16.2c-4.8,2.6-9.6,5.5-14.5,8l-14.9,7.1c-39.4,19.7-80.8,34.7-123,45.9
	c-84.5,22.4-173,26.3-259.1,14.3c-43.2-6-85.8-15.9-127.2-29.6c-41.5-13.8-82.1-30.6-120.3-53L930,288.9z"/>
<path class="st1" d="M1837.1,26c-0.9,18.4-4.5,36.2-8.3,54.1c-2.1,8.9-4.4,17.7-6.9,26.5s-5.4,17.5-8.3,26.1
	c-5.7,17.4-13,34.3-20.4,51.2c-7.8,16.7-16.6,33.1-25.9,49.3c-9.7,16.1-20.4,31.6-32,46.5c-2.9,3.7-6,7.4-9.1,11
	c-3.2,3.6-6.1,7.3-9.5,10.7s-6.5,7-9.9,10.4l-10.6,9.8c-14.5,13.1-30.5,24.5-47.7,33.8c-17.4,9.1-36.2,16.3-55.7,18.8l-0.6-1.8
	c36.2-11.6,66.9-34.5,92.7-60.6c12.7-13.2,24.6-27.2,35.4-42c10.8-14.6,20.8-29.9,30-45.6c18.6-31.1,35-63.5,49-96.9
	c14-33.2,26.7-67.2,36-101.8L1837.1,26z"/>
<path class="st1" d="M682.4,76.7c-33.1-10.6-65.2-16.7-97-22.2c-15.8-2.5-31.5-4.4-47.2-6.2s-31-2.5-46.4-3.4
	c-30.9-2-60.5-0.7-90.1,0.8c-29.3,2.1-57.6,6.6-85.5,12c-54.7,12.6-106.7,32-148.5,65.3c-21.1,16.3-39.8,35.7-54.4,59
	c-14.2,23.6-25.3,50.1-29.7,80.6l3,2.3c20.2-51.6,55.9-90.1,99.7-117.1c10.7-7.1,22.4-12.9,33.9-18.9c12-5.3,23.8-10.9,36.4-15.2
	C282,104.5,308,97,334.4,91.6C387.9,79.6,444.6,73.8,503,72c60.2-1.8,120.5,0.9,180.4,8.1L682.4,76.7z"/>
</svg>
