<svg id="Capa_1" data-name="Capa 1" xmlns="http://www.w3.org/2000/svg" viewBox="0 0 62.35 63.2"><defs><style>.cls-1{opacity:0.37;}.cls-2{fill:#eadfc1;}.cls-3{fill:gray;}</style></defs><g class="cls-1"><path class="cls-2" d="M522-88.82a849.4,849.4,0,0,0-126.61-35.45c-10.57-2.4-21.28-4.08-31.87-6.12-10.67-1.67-21.33-3.28-32-4.64-21.37-2.45-42.63-5-64-5.95-42.64-1.73-85.14-1.72-127.17,3.45a642.75,642.75,0,0,0-124.08,25L1.07-108.26C-4-106.83-9-104.86-14-103.19c-10,3.61-20.12,6.68-30,10.71L-73.38-80.1c-9.85,4.06-19.17,9.41-28.95,13.72l-14.52,6.83c-4.79,2.4-9.42,5.15-14.15,7.7l-28.24,15.64c-9.13,5.79-18.18,11.74-27.42,17.41-4.6,2.85-9.3,5.57-13.85,8.53L-213.9-.89C-285.63,48.82-352,108.74-416.19,173.58l-2.53-2.21C-363.46,98.38-300.2,32-228.85-23.17l13.31-10.44c4.54-3.32,9.23-6.41,13.84-9.63l27.76-19.11,28.8-17.3c4.82-2.83,9.56-5.85,14.46-8.53l14.88-7.66C-76.42-117-34.85-133.45,7.62-146.09,92.72-171.31,182.31-177.86,270-168.3A723.39,723.39,0,0,1,400-142.06c42.47,12.74,84.18,28.65,123.64,50.18Z"/></g><path class="cls-3" d="M3.71,13.83C6,19.17,9.89,24.46,15.33,26.74a13.17,13.17,0,0,0,2,.62A21.15,21.15,0,0,1,22.42,22a25.22,25.22,0,0,1,5.23-2.95,15.71,15.71,0,0,0-1.63-1c-2.26-1.18-4.71-2.22-7.09-3.34,2.24.61,4.81.84,7,1.62a16.34,16.34,0,0,1,3.72,2,51.83,51.83,0,0,1,10.59-2.15c-2.9-4.82-9.08-8.69-13.74-10.44C21.58,3.91,16.06,3.69,10.64,3.13A27.21,27.21,0,0,1,1.07.1.72.72,0,0,0,0,1C1.34,5.14,2,9.84,3.71,13.83Z"/><path class="cls-3" d="M61,13.19c-6.11,3.32-13.11,3.73-20,4.52a56.09,56.09,0,0,0-9.83,1.82c-.68.21-1.37.44-2,.7a23.85,23.85,0,0,0-5.73,3.1A19.26,19.26,0,0,0,19.1,27.7a33.84,33.84,0,0,0-4.25,8.73A50,50,0,0,0,12.17,54.1a33.91,33.91,0,0,0,.71,7.32A3.35,3.35,0,0,0,13.56,63a.77.77,0,0,0,1.26-.76c-1.54-5.24-.58-11.36,1.54-16.36,2.45-5.76,7.16-9.18,12.92-11.27,1.53-.55,3.09-1,4.68-1.49a.18.18,0,0,1,.1,0,.32.32,0,0,1,.12.62c-1.87.84-3.73,1.7-5.5,2.62-8.67,4.52-12.45,15-9.2,15a2.68,2.68,0,0,0,.93-.22c5-2.08,11-2.1,16.47-3.12a27.36,27.36,0,0,0,5.59-1.57c7-2.93,12.05-8.67,15-15.57,2.23-5.14,3.1-11.22,4.78-16.57A.93.93,0,0,0,61,13.19Z"/></svg>