<?xml version="1.0" encoding="utf-8"?>
<!-- Generator: Adobe Illustrator 26.0.1, SVG Export Plug-In . SVG Version: 6.00 Build 0)  -->
<svg version="1.1" id="Layer_1" xmlns="http://www.w3.org/2000/svg" xmlns:xlink="http://www.w3.org/1999/xlink" x="0px" y="0px"
	 viewBox="0 0 316 234.9" style="enable-background:new 0 0 316 234.9;" xml:space="preserve">
<style type="text/css">
	.st0{fill:#808080;}
</style>
<path class="st0" d="M259.3,203.4h-18v-6.2h5.3c2.1,0,3.7-1.7,3.7-3.7v-54.3c0-2.1-1.7-3.7-3.7-3.7l0,0h-5.3v-26
	c0-2.1-1.7-3.7-3.7-3.7H89c-2.1,0-3.7,1.7-3.7,3.7v26h-4.8c-2,0-3.7,1.7-3.7,3.7c0,0,0,0,0,0v54.4c0,2,1.7,3.7,3.7,3.7h0h5.2v6.2
	H56.4V40.4c0-9.9,8.1-18,18-18h21.9c8.7,0,16.2,6.2,17.7,14.8c-13.2,2-22.4,14.3-20.4,27.6c0,0,0,0,0,0c0.3,1.9,0.8,3.8,1.5,5.6
	c0.6,1.3,1.9,2.2,3.3,2.2H137c1.5,0,2.8-0.9,3.3-2.2c1.2-2.8,1.9-5.8,1.9-8.9c0-12.1-8.9-22.3-20.8-24.1
	c-1.5-12.7-12.2-22.3-25-22.3h-22c-13.9,0-25.2,11.3-25.3,25.3v163.1h-9.1c-2,0.5-3.2,2.5-2.7,4.5c0.3,1.3,1.4,2.4,2.7,2.7h219.2
	c2,0.4,4-0.9,4.4-2.9c0.4-1.9-0.7-3.8-2.6-4.3C260.4,203.2,259.8,203.2,259.3,203.4L259.3,203.4z M134.8,61.4c0,1.4-0.2,2.7-0.5,4.1
	h-33.4c-0.3-1.3-0.5-2.7-0.5-4.1c0.5-9.5,8.5-16.8,18-16.4c8.8,0.4,15.9,7.5,16.4,16.4H134.8z M242.9,189.9h-75.8v-10.8h65.6
	c2.1,0,3.7-1.7,3.7-3.7v-18.9c0-2-1.7-3.7-3.7-3.7h0h-0.2v-10H243L242.9,189.9z M97.8,160.2h62.1v11.7h-62L97.8,160.2z M167,160.2
	h62.1v11.7h-62L167,160.2z M92.7,113.1h141.2v22.5h-5.2c-2,0-3.7,1.7-3.7,3.7v0v13.8H101.7v-13.8c0-2.1-1.7-3.7-3.7-3.7c0,0,0,0,0,0
	h-5.1L92.7,113.1z M83.9,142.8h10.5V153h-0.2c-2,0-3.7,1.7-3.7,3.7l0,0v19c0,2,1.7,3.7,3.7,3.7h0h65.8v10.8H84.1L83.9,142.8z
	 M92.7,197.2h141.2v6.2H92.7V197.2z"/>
</svg>
