<?xml version="1.0" encoding="utf-8"?>
<!-- Generator: Adobe Illustrator 25.4.1, SVG Export Plug-In . SVG Version: 6.00 Build 0)  -->
<svg version="1.1" id="Capa_1" xmlns="http://www.w3.org/2000/svg" xmlns:xlink="http://www.w3.org/1999/xlink" x="0px" y="0px"
	 viewBox="0 0 86.3 73.3" style="enable-background:new 0 0 86.3 73.3;" xml:space="preserve">
<style type="text/css">
	.st0{fill:#808080;}
</style>
<path class="st0" d="M6.1,28.8V11.5c0-0.6,0.4-1,1-1h72c0.6,0,1,0.4,1,1l0,0c0,0.6-0.4,1-1,1H10.3c-0.6,0-1,0.4-1,1v0.2
	c0,0.6,0.4,1,1,1h68.9c0.6,0,1,0.4,1,1v0.1c0,0.6-0.4,1-1,1H10.3c-0.6,0-1,0.4-1,1V18c0,0.6,0.4,1,1,1h68.8c0.6,0,1,0.4,1,1v0.2
	c0,0.6-0.4,1-1,1H10.2c-0.6,0-1,0.4-1,1v0.1c0,0.6,0.4,1,1,1h68.9c0.6,0,1,0.4,1,1v0.2c0,0.6-0.4,1-1,1H10.3c-0.6,0-1,0.4-1,1v0.2
	c0,0.6,0.4,1,1,1h68.9c0.6,0,1,0.4,1,1v0.1c0,0.6-0.4,1-1,1h-72C6.6,29.8,6.1,29.4,6.1,28.8z"/>
<path class="st0" d="M3.8,0h78.7c2.1,0,3.8,1.7,3.8,3.8l0,0c0,2.1-1.7,3.8-3.8,3.8H3.8C1.7,7.6,0,5.9,0,3.8l0,0C0,1.7,1.7,0,3.8,0z"
	/>
<path class="st0" d="M1.4,10.5L1.4,10.5c0.8,0,1.4,0.6,1.4,1.4v60c0,0.8-0.6,1.4-1.4,1.4l0,0c-0.8,0-1.4-0.6-1.4-1.4v-60
	C0,11.1,0.6,10.5,1.4,10.5z"/>
<path class="st0" d="M84.9,10.5L84.9,10.5c0.8,0,1.4,0.6,1.4,1.4v60c0,0.8-0.6,1.4-1.4,1.4l0,0c-0.8,0-1.4-0.6-1.4-1.4v-60
	C83.5,11.1,84.1,10.5,84.9,10.5z"/>
<path class="st0" d="M78.8,10.5L78.8,10.5c0.7,0,1.3,0.6,1.3,1.4v16.5c0,0.7-0.6,1.4-1.3,1.4l0,0c-0.7,0-1.3-0.6-1.3-1.4V11.8
	C77.5,11.1,78.1,10.5,78.8,10.5z"/>
<path class="st0" d="M15.2,43.1c-0.4,0-0.7,0.3-0.7,0.7c0,0,0,0,0,0V61l-3.7-3.7c-0.3-0.3-0.7-0.3-1,0c-0.1,0.1-0.2,0.3-0.2,0.5v1.5
	c0,0.2,0.1,0.4,0.2,0.5l5.4,5.4c0.3,0.3,0.7,0.3,1,0c0,0,0,0,0,0l5.4-5.4c0.1-0.1,0.2-0.3,0.2-0.5v-1.5c0-0.4-0.3-0.7-0.7-0.7
	c-0.2,0-0.4,0.1-0.5,0.2L16.9,61V43.8c0-0.4-0.3-0.7-0.7-0.7H15.2z"/>
<path class="st0" d="M78.3,47.9c-0.2-0.4-0.5-0.6-0.9-0.6h-4.8c-0.4,0-0.8,0.3-0.9,0.6c-0.1,0.3-0.2,0.7-0.3,1l-3.2-8.8
	c-0.5-1.5-1.9-2.4-3.4-2.4H40.5c-1.5,0-2.9,0.9-3.5,2.4l-3.2,8.8c-0.1-0.3-0.2-0.7-0.3-1c-0.2-0.4-0.5-0.6-0.9-0.6h-4.7
	c-0.4,0-0.8,0.3-0.9,0.6c-0.5,1.2-0.5,2.4,0,3.6c0.2,0.4,0.5,0.6,0.9,0.6h4.8l-0.1,0.2c-1,0.3-1.7,1.3-1.7,2.3v16.1
	c0,0.6,0.5,1.2,1.1,1.2c0,0,0,0,0.1,0H38c0.6,0,1.2-0.5,1.2-1.2v-5.7h26.9v5.7c0,0.7,0.5,1.2,1.2,1.2l0,0h5.9c0.7,0,1.2-0.5,1.2-1.2
	l0,0V54.7c0-1-0.7-2-1.7-2.3l-0.1-0.2h4.8c0.4,0,0.8-0.3,0.9-0.6C78.8,50.4,78.8,49.1,78.3,47.9z M40.9,42h23.4L68,52.2H37.2
	L40.9,42z M41.6,59.5h-4.9c-1.1,0.1-2-0.7-2.1-1.8s0.7-2,1.8-2.1c0.1,0,0.2,0,0.3,0h4.9c1.1-0.1,2,0.7,2.1,1.8
	c0.1,1.1-0.7,2-1.8,2.1C41.8,59.5,41.7,59.5,41.6,59.5z M68.6,59.5h-4.9c-1.1,0.1-2-0.7-2.1-1.8s0.7-2,1.8-2.1c0.1,0,0.2,0,0.3,0
	h4.9c1.1-0.1,2,0.7,2.1,1.8c0.1,1.1-0.7,2-1.8,2.1C68.8,59.5,68.7,59.5,68.6,59.5L68.6,59.5z"/>
</svg>
