<svg id="Capa_1" data-name="Capa 1" xmlns="http://www.w3.org/2000/svg" viewBox="0 0 114.65 73.01"><defs><style>.cls-1{fill:gray;}</style></defs><path class="cls-1" d="M33.21,14.55a5.75,5.75,0,0,0-5.53,5.95v3.58H52.83V20.5a5.75,5.75,0,0,0-5.52-5.95Z"/><path class="cls-1" d="M67.24,14.55a5.75,5.75,0,0,0-5.52,5.95v3.58H86.87V20.5a5.75,5.75,0,0,0-5.52-5.95Z"/><path class="cls-1" d="M25.9,24.06V18.7a6.57,6.57,0,0,1,6.56-6.56H48.58a6.57,6.57,0,0,1,6.56,6.56v5.36h4.37V18.7a6.56,6.56,0,0,1,6.56-6.56H82.18a6.56,6.56,0,0,1,6.56,6.56v5.36h4.54a12.93,12.93,0,0,1,2.59.26V6.82A6.82,6.82,0,0,0,89.05,0H25.59a6.82,6.82,0,0,0-6.82,6.82v17.5a13.08,13.08,0,0,1,2.59-.26Z"/><path class="cls-1" d="M110.44,37.55H4.2C1.88,37.55,0,39,0,40.74V61.65c0,1.76,1.88,3.19,4.2,3.19H110.44c2.32,0,4.21-1.43,4.21-3.19V40.74c0-1.76-1.89-3.19-4.21-3.19Z"/><path class="cls-1" d="M100.08,27.06H14.57A8.61,8.61,0,0,0,6,34.51H108.62a8.62,8.62,0,0,0-8.54-7.45Z"/><path class="cls-1" d="M4.2,67.37v2.24a3.4,3.4,0,1,0,6.79,0V67.37Z"/><path class="cls-1" d="M103.66,67.37v2.24a3.4,3.4,0,1,0,6.79,0V67.37h-6.79Z"/></svg>