<svg id="Capa_1" data-name="Capa 1" xmlns="http://www.w3.org/2000/svg" viewBox="0 0 73.07 73.22"><defs><style>.cls-1{opacity:0.37;}.cls-2{fill:#eadfc1;}.cls-3{fill:gray;}</style></defs><g class="cls-1"><path class="cls-2" d="M52.91,4.23A96.56,96.56,0,0,1-41.65-94.25,96.54,96.54,0,0,1,56.82-188.8a96.58,96.58,0,0,1,94.56,98.47A96.56,96.56,0,0,1,52.91,4.23"/><path class="cls-2" d="M51.75-79.41A848.73,848.73,0,0,0-74.86-114.86c-10.57-2.39-21.28-4.08-31.87-6.12-10.67-1.66-21.33-3.27-32-4.64-21.37-2.45-42.63-5-64-5.94-42.64-1.74-85.14-1.73-127.17,3.44a642.9,642.9,0,0,0-124.08,25l-15.28,4.26c-5.09,1.43-10,3.4-15.06,5.07-10,3.62-20.12,6.68-30,10.72l-29.43,12.37c-9.85,4.06-19.17,9.41-29,13.72l-14.52,6.83c-4.79,2.4-9.42,5.15-14.14,7.7L-629.53-26.8c-9.13,5.8-18.18,11.74-27.41,17.41-4.61,2.85-9.31,5.57-13.86,8.53l-13.39,9.38C-755.92,58.24-822.26,118.15-886.48,183l-2.53-2.21c55.26-73,118.52-139.41,189.88-194.54l13.3-10.44c4.54-3.32,9.23-6.41,13.84-9.62l27.76-19.11,28.8-17.3c4.82-2.84,9.56-5.86,14.46-8.53l14.89-7.67c39.37-21.17,80.94-37.61,123.41-50.25,85.1-25.21,174.69-31.77,262.42-22.21A723.39,723.39,0,0,1-70.34-132.65C-27.87-119.91,13.84-104,53.3-82.47Z"/></g><path class="cls-3" d="M44.08,18.65,23.9.57a2.22,2.22,0,0,0-3,0L.75,18.65a2.25,2.25,0,0,0,1.49,3.92H42.59A2.25,2.25,0,0,0,44.08,18.65Z"/><path class="cls-3" d="M42.59,68.74H40.35v-45H4.48v45H2.24a2.24,2.24,0,1,0,0,4.48H6.72A2.24,2.24,0,0,0,9,71V59.77h4.48V71a2.24,2.24,0,0,0,4.48,0V68.74h9V71a2.24,2.24,0,1,0,4.48,0V59.77h4.48V71a2.24,2.24,0,0,0,2.25,2.24h4.48a2.24,2.24,0,0,0,0-4.48ZM13.45,55.29H9V50.81h4.48Zm13.45,9h-9V59.77h9Zm0-9h-9V50.81h9Zm-4.49-9.11a9,9,0,1,1,9-9A9,9,0,0,1,22.41,46.18Zm13.45,9.11H31.38V50.81h4.48Z"/><path class="cls-3" d="M68.59,64.26H60.68a4.47,4.47,0,0,1-4.12-2.72l-5-16.18a13.44,13.44,0,0,0-10.22-8v9A4.7,4.7,0,0,1,44.16,49l6.11,18.75a9,9,0,0,0,8.24,5.43H68.59a4.48,4.48,0,0,0,0-9Z"/></svg>