<svg id="Capa_1" data-name="Capa 1" xmlns="http://www.w3.org/2000/svg" viewBox="0 0 95.59 93.52"><defs><style>.cls-1{opacity:0.12;}.cls-2{fill:#9baa87;}.cls-3{fill:gray;}</style></defs><g class="cls-1"><path class="cls-2" d="M31.1-266.14a535.36,535.36,0,0,1,83-2.09c6.84.17,13.65.8,20.45,1.19,6.79.64,13.56,1.3,20.3,2.11,13.45,1.81,26.86,3.53,40.06,6.27,26.36,5.55,52.37,12.13,77.29,21.81a404.17,404.17,0,0,1,72.06,34.52l8.69,5c2.9,1.66,5.61,3.63,8.43,5.43,5.54,3.76,11.28,7.21,16.68,11.2l16.09,12.13c5.4,4,10.28,8.73,15.59,12.88l7.83,6.43c2.56,2.21,5,4.6,7.47,6.9l14.86,13.95c4.69,5,9.31,10,14.08,14.89,2.38,2.46,4.83,4.85,7.16,7.37l6.74,7.81c36.2,41.53,67.52,88.47,96.78,138.09l1.89-.95C544-14.46,515.58-64.9,480.45-109.69l-6.53-8.45c-2.26-2.73-4.66-5.35-7-8l-14-16-14.94-15c-2.52-2.48-5-5.06-7.53-7.46l-7.92-7a413,413,0,0,0-67.75-49.86c-48.17-28.61-102-46.49-157.15-54.23a457.32,457.32,0,0,0-83.56-4.06c-28,1.22-56,4.5-83.44,11.57Z"/></g><path class="cls-3" d="M90.59,93.52a1.57,1.57,0,0,1-1.11-2.68l.7-.7H18.33l.7.7a1.57,1.57,0,0,1-2.23,2.22l-3.34-3.34A1.59,1.59,0,0,1,13,88.58h0a1.57,1.57,0,0,1,.69-1.31l3.19-3.19a1.58,1.58,0,0,1,2.23,2.23l-.7.69H90.26l-.7-.69a1.57,1.57,0,0,1,2.22-2.23l3.35,3.34a1.63,1.63,0,0,1,.46,1.14v0a1.6,1.6,0,0,1-.69,1.3l-3.2,3.19A1.54,1.54,0,0,1,90.59,93.52ZM5,82.59a1.6,1.6,0,0,1-1.31-.69L.46,78.71a1.58,1.58,0,0,1,2.23-2.23l.69.7V5.33L2.69,6A1.58,1.58,0,0,1,.46,3.8L3.8.46A1.57,1.57,0,0,1,4.94,0,1.62,1.62,0,0,1,6.26.69L9.45,3.88A1.57,1.57,0,0,1,7.23,6.11l-.7-.7V77.26l.7-.7a1.57,1.57,0,0,1,2.22,2.22L6.11,82.13A1.58,1.58,0,0,1,5,82.59ZM94,78.14H18a1.58,1.58,0,0,1-1.57-1.58v-75A1.58,1.58,0,0,1,18,0H63.42A1.57,1.57,0,0,1,65,1.57V32.11H94a1.57,1.57,0,0,1,1.58,1.57V76.56A1.58,1.58,0,0,1,94,78.14ZM64.93,75H92.44V35.25H64.93ZM34.79,75h27V53.92h-27ZM19.57,75H31.64V53.92H19.57ZM33.22,50.77H61.78V33.68a1.77,1.77,0,0,1,.07-.46V16.79H19.57v34Zm9-37.12h19.6V3.15H42.25Zm-22.68,0H39.1V3.15H19.57Z"/></svg>