<svg id="Capa_1" data-name="Capa 1" xmlns="http://www.w3.org/2000/svg" viewBox="0 0 61.52 94"><defs><style>.cls-1{opacity:0.12;}.cls-2{fill:#9baa87;}.cls-3{fill:gray;}</style></defs><g class="cls-1"><path class="cls-2" d="M-166.39-263.91a536.62,536.62,0,0,1,83-2.08c6.84.17,13.65.79,20.45,1.19,6.79.63,13.56,1.3,20.3,2.11,13.45,1.81,26.86,3.52,40.06,6.27,26.37,5.54,52.38,12.13,77.29,21.8a405.55,405.55,0,0,1,72.06,34.52l8.7,5c2.89,1.66,5.61,3.64,8.42,5.44,5.54,3.75,11.29,7.2,16.68,11.19l16.1,12.13c5.39,4,10.27,8.73,15.58,12.88l7.83,6.43c2.56,2.21,5,4.61,7.47,6.91l14.86,13.94c4.69,5,9.31,10,14.08,14.9,2.38,2.46,4.83,4.85,7.16,7.37l6.74,7.81C306.56-54.6,337.88-7.66,367.14,42L369,41C346.51-12.22,318.09-62.66,283-107.45l-6.53-8.45c-2.26-2.74-4.65-5.35-7-8l-14-16-14.94-15c-2.51-2.49-4.94-5.07-7.53-7.46l-7.92-7a412.41,412.41,0,0,0-67.75-49.86C109.11-247.9,55.3-265.79.13-273.52a456.44,456.44,0,0,0-83.56-4.06c-28,1.22-55.95,4.5-83.44,11.56Z"/></g><path class="cls-3" d="M33.27,61c0-2.14,0-4.27,0-6.41,0-1.07-.16-1.71-1.43-1.1a2.54,2.54,0,0,1-2.14.06c-1.27-.55-1.45.06-1.44,1.14q0,6.14,0,12.26c0,2.21-.21,2.39-2.41,2.4-7,0-11.1-3.59-11.78-10.53a5.42,5.42,0,0,0-2.22-3.93C1.8,46.47-2.19,35.74,1.16,23S13.1,2.65,26.05.44A30.41,30.41,0,0,1,61.33,27.37C62.48,38.71,58.39,47.93,49.57,55c-1.68,1.35-2,2.93-2.14,4.77a10.13,10.13,0,0,1-7.38,9,17.53,17.53,0,0,1-5.26.53c-1,0-1.54-.48-1.53-1.57,0-2.26,0-4.51,0-6.77Zm-5.5-21.26h0c0-3.6,0-7.19,0-10.79,0-1.93,1.12-3.16,2.76-3.25s2.87,1,3.14,2.9a15,15,0,0,1,.08,2c0,6.15,0,12.31,0,18.47,0,.86-.51,2.07.4,2.51.72.34,1.5-.63,2.19-1.09,9-6,11.81-14.54,7.8-23.47-2.6-5.79-6.71-10.42-11.37-14.61a2.72,2.72,0,0,0-4,0c-4.79,4.32-9.07,9.06-11.59,15.11A17.45,17.45,0,0,0,15.78,37c1,6.76,5.47,10.93,10.81,14.43,1.12.74,1.19,0,1.19-.85C27.77,46.93,27.77,43.34,27.77,39.74Z"/><path class="cls-3" d="M30.66,94A10.1,10.1,0,0,1,20.48,84a4.42,4.42,0,0,0-1.35-3.56,7.9,7.9,0,0,1-2.33-6.5c0-.79.22-1.41,1.18-1,3.68,1.71,7.61,1.49,11.5,1.42,3.46-.07,6.94.3,10.4-.29a14.56,14.56,0,0,0,3.32-1c1.17-.52,1.6-.1,1.54,1.06a8.75,8.75,0,0,1-2.33,6.18,4.34,4.34,0,0,0-1.35,3.22C40.81,89.75,36.52,94,30.66,94Z"/></svg>