<svg id="Capa_1" data-name="Capa 1" xmlns="http://www.w3.org/2000/svg" viewBox="0 0 64.07 64"><defs><style>.cls-1{fill:gray;}</style></defs><path class="cls-1" d="M63.91,11a.79.79,0,0,0-.08-1L59,5.08,54.13.23a.78.78,0,0,0-1-.07,56.67,56.67,0,0,0-7.35,6.6c-2.37,2.54-4.93,5.49-6,8.88a9,9,0,0,0-.32,3.26c0,.56.12,1.11.2,1.67,0,.24.09.48.11.73a.89.89,0,0,1-.1.53,1.18,1.18,0,0,1-.18.21l-3.2,3.21-3.22,3.21-3.22,3.22L26.63,34.9l-1.75,1.75-.9-.89a.37.37,0,0,0-.51.05l-.23.23a.3.3,0,0,0,0,.46h0a123.41,123.41,0,0,0-11.8,10.32A126.05,126.05,0,0,0,.49,59.23a3.14,3.14,0,0,0,.55,4,3.12,3.12,0,0,0,3.71.24A124.9,124.9,0,0,0,17.29,52.43,124.88,124.88,0,0,0,27.5,40.75l.09.09a.35.35,0,0,0,.5,0l.23-.23a.41.41,0,0,0,0-.55l-.9-.9L30.66,36l3.22-3.22,3.22-3.22,3.22-3.23,1.44-1.45a2.58,2.58,0,0,1,.75-.6,2,2,0,0,1,.91-.07c.37,0,.74.08,1.1.12a15.32,15.32,0,0,0,2.7.18,10.25,10.25,0,0,0,4.43-1.74,32,32,0,0,0,3.83-2.82c.62-.53,1.23-1.07,1.82-1.63A57.87,57.87,0,0,0,63.91,11ZM45.5,13.08a.65.65,0,0,1-.93,0l-.46-.46a.65.65,0,0,1,0-.93l8.76-8.77a.67.67,0,0,1,.93,0l.46.47a.65.65,0,0,1,0,.93ZM56.4,6.45a.67.67,0,0,1,.93,0l.46.47a.65.65,0,0,1,0,.93L49,16.61a.65.65,0,0,1-.93,0l-.47-.47a.67.67,0,0,1,0-.93ZM2.32,62.11a1.48,1.48,0,1,1,1.64,0A1.49,1.49,0,0,1,2.32,62.11ZM52.25,19.83a.67.67,0,0,1-.93,0l-.47-.47a.67.67,0,0,1,0-.93l8.76-8.76a.65.65,0,0,1,.93,0l.47.47a.65.65,0,0,1,0,.93Z"/><path class="cls-1" d="M8.31,1.11C7.52.57,7,.93,7.61,1.67,8.84,3.26,11.46,6.35,12.77,8c1.47,1.81,2.87,3.61,4.2,5.36a1,1,0,0,1,0,1.25,11.48,11.48,0,0,1-1.33,1.5,8.24,8.24,0,0,1-1,.85,1,1,0,0,1-1.2,0c-2.19-1.45-4.05-2.84-5.56-4S3.16,9,1.71,7.75C1,7.1.59,7.43,1.16,8.25a66.53,66.53,0,0,0,12.3,13A10.79,10.79,0,0,0,17.26,23a5.46,5.46,0,0,0,1,.12c.4,0,.43,0,.84-.05a2.63,2.63,0,0,1,1.84.34s0,0,.46.43l.48.47L35.84,38.27l-.89.89a.37.37,0,0,0,0,.51l.23.23a.29.29,0,0,0,.45,0h0A122.23,122.23,0,0,0,46,51.71,124.89,124.89,0,0,0,58.41,62.66a3.08,3.08,0,0,0,4.28-4.26A125.06,125.06,0,0,0,51.62,45.86,123.43,123.43,0,0,0,39.94,35.65l.09-.09a.36.36,0,0,0,0-.5l-.24-.24a.41.41,0,0,0-.55,0l-.89.89L32,29.3l-6.44-6.44L24.5,21.8a6.83,6.83,0,0,1-.94-1,2.65,2.65,0,0,1-.45-1.42v-.05c0-.4.07-.41.09-.95a7,7,0,0,0-.07-1,9.68,9.68,0,0,0-1.87-4A82.14,82.14,0,0,0,8.31,1.11Zm52.79,60A1.48,1.48,0,1,1,59,59a1.48,1.48,0,0,1,2.09,2.1Z"/></svg>