<svg id="Capa_1" data-name="Capa 1" xmlns="http://www.w3.org/2000/svg" viewBox="0 0 81.11 95.67"><defs><style>.cls-1{fill:gray;}</style></defs><path class="cls-1" d="M68.1,63.05l-2.26-.5a7.64,7.64,0,0,0-9.51,6.79c0,.57-.11,1.15-.18,1.73a4.8,4.8,0,0,1-3.56,4.26,4.67,4.67,0,0,1-5.26-1.71c-1.48-1.79-3.13-3.27-5.55-3.55a7.82,7.82,0,0,0-7.52,3.06c-1.5,1.93-3.28,2.84-5.7,2.15s-3.43-2.67-3.72-5.1c-.72-6.1-4.58-8.86-10.46-7.43A5.14,5.14,0,0,1,8.7,61c-1.4-1.76-1.32-3.74.09-6.09,3.06-5.08,1.55-9.93-4-12.31-2.22-1-3.7-2.41-3.66-4.89s1.49-3.9,3.76-4.81c5.23-2.1,6.89-7.1,4-12-1.26-2.13-1.79-4.19-.21-6.3s3.62-2.32,6.06-1.74c5.35,1.27,9.4-1.67,10-7.08a6.71,6.71,0,0,1,1.72-4.37c2.28-2.22,5.05-1.92,7.59.86,3.26,3.58,7.12,4.33,10.69,2A10.88,10.88,0,0,0,47,2.27c1.44-1.65,3.08-2.65,5.37-2s3.5,2.4,3.79,4.79a9.93,9.93,0,0,0,1,4.2,7.78,7.78,0,0,0,9,3.7c2.51-.65,4.68-.38,6.28,1.74s.94,4.18-.32,6.28c-2.9,4.85-1.22,9.69,4.1,11.91,2.24.93,3.69,2.43,3.71,4.88s-1.46,3.93-3.7,4.87c-5.44,2.27-7,7.3-3.88,12.3a5,5,0,0,1,.34,5.54A5.07,5.07,0,0,1,68.1,63.05ZM40.49,65.93C56.73,65.76,69.14,53.25,68.77,37A28.25,28.25,0,0,0,12.3,38.66C12.48,53.63,25.36,66.09,40.49,65.93Z"/><path class="cls-1" d="M16.52,65.33c3.28,0,5.27,1.82,5.36,4.71a8.2,8.2,0,0,0,4.53,7.63c1,.53,1.17,1.14.53,2.06-3.51,5-7,10-10.53,15-1.06,1.46-2,1.24-2.59-.51-.63-2-1.14-4-1.68-6.08a3.34,3.34,0,0,0-3.82-2.8c-2.09.15-4.19.33-6.29.46-.72,0-1.52.09-1.91-.71s.13-1.25.5-1.78C4.36,77.93,8.14,72.58,11.85,67.2,13.14,65.33,15.25,65.93,16.52,65.33Z"/><path class="cls-1" d="M78.73,85.75c-2.25-.16-4.21-.32-6.17-.43A3.21,3.21,0,0,0,69,87.92c-.58,2-1.13,4.07-1.7,6.1-.18.64-.36,1.33-1.09,1.53-.89.23-1.29-.5-1.71-1.08Q59.45,87.24,54.36,80c-.72-1-.87-1.7.45-2.39,3-1.57,4.29-4.15,4.4-7.5S61.72,65,65,65.37a6.75,6.75,0,0,1,5.32,3.19c3.09,4.84,6.54,9.46,9.82,14.19.48.69,1.34,1.34.9,2.3C80.46,86.17,79.32,85.63,78.73,85.75Z"/><path class="cls-1" d="M40.62,12.54A25.24,25.24,0,0,1,65.86,38.08c0,13.9-11.62,25.05-25.6,25A25.46,25.46,0,0,1,15.19,37.72,25.44,25.44,0,0,1,40.62,12.54ZM28.4,49.4c-.07,4.33,3,6.37,6.18,4.34,4-2.5,7.57-3.19,11.51-.14a4,4,0,0,0,4.9.21A4,4,0,0,0,52.58,49c-1.65-4.71-.1-8.07,3.71-10.86a3.68,3.68,0,0,0,1.41-4.29,4,4,0,0,0-3.89-3c-5,.09-8-2.18-9.45-6.85a3.77,3.77,0,0,0-3.82-2.75,4.29,4.29,0,0,0-3.91,2.7,9.82,9.82,0,0,0-.77,1.56c-1,3.28-3,5.2-6.63,5a9.2,9.2,0,0,0-2.58.41,4.07,4.07,0,0,0-2.17,6.94,45.74,45.74,0,0,0,3.59,3.51,3.41,3.41,0,0,1,1.12,3.53C28.84,46.54,28.6,48.27,28.4,49.4Z"/><path class="cls-1" d="M31.34,50c.3-1.92.52-3.72.9-5.5a4.64,4.64,0,0,0-1.57-4.69c-1.17-1.09-2.28-2.25-3.4-3.38-.51-.52-1.15-1-.82-1.87s1.12-.85,1.83-1c1.22-.18,2.44-.41,3.67-.48a5.88,5.88,0,0,0,5.48-4,31.24,31.24,0,0,1,1.8-3.73c.88-1.56,1.77-1.56,2.68,0a32.88,32.88,0,0,1,1.89,3.92A5.66,5.66,0,0,0,49,33.07a40.53,40.53,0,0,1,4.11.54c1.89.33,2.22,1.25.94,2.64-1.09,1.17-2.25,2.28-3.42,3.37a4.89,4.89,0,0,0-1.69,4.89c.33,1.56.54,3.15.8,4.72.12.73.25,1.49-.47,2S48,51.3,47.41,51C41,47.64,41.3,46.66,33.65,51,32.13,51.86,31.32,51.37,31.34,50Z"/></svg>