<?xml version="1.0" encoding="utf-8"?>
<!-- Generator: Adobe Illustrator 25.4.1, SVG Export Plug-In . SVG Version: 6.00 Build 0)  -->
<svg version="1.1" id="Capa_1" xmlns="http://www.w3.org/2000/svg" xmlns:xlink="http://www.w3.org/1999/xlink" x="0px" y="0px"
	 viewBox="0 0 66.4 68.6" style="enable-background:new 0 0 66.4 68.6;" xml:space="preserve">
<style type="text/css">
	.st0{fill:#808080;}
</style>
<path class="st0" d="M64,24.1l-6.4,9l-1.8,6.8l6.2,1.7l4.5-16.8L64,24.1z"/>
<path class="st0" d="M50.5,44.5l2.5-9.3l-28.8-7.7l-7.1,4.1L7.3,29l-1,3.7L50.5,44.5z"/>
<path class="st0" d="M4.4,39.6H0v29h4.4V39.6z"/>
<path class="st0" d="M28.5,35.4h-4.5v17.9h4.5V35.4z"/>
<path class="st0" d="M24.8,55.6l-1-4.3L2,56.4l1,4.3L24.8,55.6z"/>
<path class="st0" d="M11,0L4.6,24.3l12,3.2l7.1-4.1L54,31.4l12-16.8L11,0z M19.2,14.2l-3.7-1l1-3.7l3.7,1L19.2,14.2z M26.7,16.2
	l-3.7-1l1-3.7l3.7,1L26.7,16.2z"/>
<circle class="st0" cx="26.7" cy="52.6" r="6.1"/>
</svg>
