<?xml version="1.0" encoding="utf-8"?>
<!-- Generator: Adobe Illustrator 25.4.1, SVG Export Plug-In . SVG Version: 6.00 Build 0)  -->
<svg version="1.1" id="Capa_1" xmlns="http://www.w3.org/2000/svg" xmlns:xlink="http://www.w3.org/1999/xlink" x="0px" y="0px"
	 viewBox="0 0 86.1 56.7" style="enable-background:new 0 0 86.1 56.7;" xml:space="preserve">
<style type="text/css">
	.st0{fill:#808080;}
</style>
<path class="st0" d="M85.5,17c-0.3-0.6-0.8-1.1-1.5-1.1h-7.9c-0.7,0-1.3,0.5-1.5,1.1c-0.2,0.5-0.3,1.1-0.4,1.6L68.9,4
	c-0.9-2.4-3.2-4-5.7-4H23c-2.6,0-4.8,1.6-5.7,4L12,18.5c-0.1-0.5-0.3-1-0.5-1.5c-0.3-0.6-0.9-1.1-1.5-1.1H2.1
	c-0.7,0-1.3,0.5-1.5,1.1c-0.8,1.9-0.8,4.1,0,6c0.3,0.6,0.9,1,1.5,1H10l-0.1,0.3c-1.7,0.5-2.8,2.1-2.8,3.8v26.6
	c0,1.1,0.9,1.9,1.9,1.9h9.8c1.1,0,1.9-0.9,1.9-1.9v-9.4h44.6v9.4c0,1.1,0.9,1.9,1.9,1.9l0,0H77c1.1,0,2-0.8,2-1.9c0,0,0,0,0-0.1
	V28.1c0-1.7-1.1-3.3-2.8-3.8L76.1,24H84c0.7,0,1.3-0.4,1.5-1.1C86.3,21,86.3,18.9,85.5,17z M23.7,7.1h38.7l6.1,17h-51L23.7,7.1z
	 M24.8,36.1h-8.2c-1.8-0.1-3.1-1.6-3-3.4c0.1-1.6,1.4-2.9,3-3h8.2c1.8,0.1,3.1,1.6,3,3.4C27.7,34.7,26.4,36,24.8,36.1z M69.5,36.1
	h-8.2c-1.8-0.1-3.1-1.6-3-3.4c0.1-1.6,1.4-2.9,3-3h8.2c1.8,0.1,3.1,1.6,3,3.4C72.4,34.7,71.1,36,69.5,36.1z"/>
</svg>
