<svg id="Capa_1" data-name="Capa 1" xmlns="http://www.w3.org/2000/svg" viewBox="0 0 89.15 95.76"><defs><style>.cls-1{fill:gray;}</style></defs><path class="cls-1" d="M11.56,38h66a1.65,1.65,0,1,0,0-3.3H75.94a1.65,1.65,0,1,0-3.3,0h-3.3a1.65,1.65,0,0,0-3.3,0h-3.3a1.66,1.66,0,0,0-3.31,0h-3.3a1.65,1.65,0,0,0-3.3,0h-3.3a1.65,1.65,0,1,0-3.3,0h-3.3a1.66,1.66,0,0,0-3.31,0h-3.3a1.65,1.65,0,0,0-3.3,0h-3.3a1.65,1.65,0,1,0-3.3,0H23.11a1.65,1.65,0,1,0-3.3,0h-3.3a1.65,1.65,0,0,0-3.3,0H11.56a1.65,1.65,0,0,0,0,3.3Z"/><path class="cls-1" d="M31.37,28.07a1.65,1.65,0,1,0,3.3,0,11.29,11.29,0,0,0-2.81-7.6,8.09,8.09,0,0,1-2.14-5.61,8.07,8.07,0,0,1,2.14-5.61,11.32,11.32,0,0,0,2.81-7.6,1.65,1.65,0,1,0-3.3,0,8.07,8.07,0,0,1-2.15,5.61,11.37,11.37,0,0,0-2.8,7.6,11.31,11.31,0,0,0,2.8,7.59A8.1,8.1,0,0,1,31.37,28.07Z"/><path class="cls-1" d="M44.58,28.07a1.65,1.65,0,0,0,3.3,0,11.29,11.29,0,0,0-2.81-7.6,8.09,8.09,0,0,1-2.14-5.61,8.07,8.07,0,0,1,2.14-5.61,11.32,11.32,0,0,0,2.81-7.6,1.65,1.65,0,1,0-3.3,0,8.07,8.07,0,0,1-2.15,5.61,11.32,11.32,0,0,0-2.81,7.6,11.27,11.27,0,0,0,2.81,7.59A8.1,8.1,0,0,1,44.58,28.07Z"/><path class="cls-1" d="M57.78,28.07a1.66,1.66,0,0,0,3.31,0,11.34,11.34,0,0,0-2.81-7.6,8.09,8.09,0,0,1-2.15-5.61,8.07,8.07,0,0,1,2.15-5.61,11.37,11.37,0,0,0,2.81-7.6,1.66,1.66,0,0,0-3.31,0,8.07,8.07,0,0,1-2.14,5.61,11.32,11.32,0,0,0-2.81,7.6,11.27,11.27,0,0,0,2.81,7.59A8.1,8.1,0,0,1,57.78,28.07Z"/><path class="cls-1" d="M66.62,65.17A25.59,25.59,0,0,1,63.87,67L70.8,80.9H46.23V71h-3.3V80.9H18.36L25.28,67a26.63,26.63,0,0,1-2.75-1.87L8.43,93.37a1.65,1.65,0,0,0,3,1.47L16.71,84.2H42.93v9.91a1.65,1.65,0,0,0,3.3,0V84.2H72.45l5.32,10.64a1.65,1.65,0,1,0,3-1.47h0Z"/><path class="cls-1" d="M84.2,44.58H80.9a5,5,0,0,0-4.67,3.3H73.8a25,25,0,0,0,.49-5V41.27H14.86v1.66a24.24,24.24,0,0,0,.5,5H12.92a5,5,0,0,0-4.67-3.3H5a5,5,0,0,0,0,9.9h3.3a5,5,0,0,0,4.67-3.3h3.35a24.88,24.88,0,0,0,7.77,11l.9-1.8a1.65,1.65,0,0,1,2.95,1.47l-1.13,2.26a24.57,24.57,0,0,0,12.86,3.61h3.31v-6.6a1.65,1.65,0,1,1,3.3,0v6.6h3.3a24.52,24.52,0,0,0,12.86-3.61l-1.13-2.26a1.65,1.65,0,0,1,2.95-1.47l.91,1.8a24.86,24.86,0,0,0,7.76-11h3.35a5,5,0,0,0,4.67,3.3h3.3a5,5,0,1,0,0-9.9ZM8.25,51.18H5a1.65,1.65,0,0,1,0-3.3h3.3a1.65,1.65,0,1,1,0,3.3Zm76,0H80.9a1.65,1.65,0,0,1,0-3.3h3.3a1.65,1.65,0,0,1,0,3.3Z"/></svg>